<svg preserveAspectRatio="none" width="100%" height="100%" overflow="visible" style="display: block;" viewBox="0 0 32 32" fill="none" xmlns="http://www.w3.org/2000/svg">
<g id="Contact Icon">
<path id="Vector" d="M20.7413 19.3973L20.1347 20.0373C20.1347 20.0373 18.6907 21.556 14.7507 17.408C10.8107 13.26 12.2547 11.7413 12.2547 11.7413L12.6373 11.3373C13.5787 10.3453 13.668 8.75333 12.8453 7.59067L11.1653 5.21333C10.1467 3.77333 8.18 3.584 7.01333 4.812L4.92133 7.01333C4.344 7.62267 3.95733 8.41067 4.004 9.28667C4.124 11.5267 5.08133 16.344 10.42 21.9667C16.0827 27.9267 21.396 28.164 23.568 27.9493C24.256 27.8827 24.8533 27.5107 25.3347 27.004L27.228 25.0093C28.508 23.6627 28.148 21.356 26.5107 20.4147L23.964 18.948C22.8893 18.3307 21.5813 18.512 20.7413 19.396M17.68 2.50667C17.7011 2.37699 17.7475 2.25273 17.8166 2.141C17.8857 2.02926 17.9761 1.93224 18.0827 1.85547C18.1893 1.7787 18.31 1.72369 18.4379 1.69358C18.5658 1.66347 18.6983 1.65886 18.828 1.68C18.8613 1.68667 18.9707 1.70667 19.028 1.72C19.1427 1.744 19.2991 1.784 19.4973 1.84C19.8933 1.956 20.4467 2.14667 21.1107 2.45067C22.4387 3.06 24.2053 4.12533 26.04 5.95867C27.8747 7.79333 28.94 9.56133 29.5493 10.8893C29.8533 11.5533 30.0427 12.1053 30.1587 12.5027C30.2167 12.7024 30.267 12.9043 30.3093 13.108L30.316 13.1493C30.3599 13.4134 30.2983 13.6841 30.1444 13.9031C29.9905 14.1221 29.7566 14.2718 29.4933 14.32C29.2323 14.3624 28.965 14.2996 28.7501 14.1454C28.5352 13.9913 28.3902 13.7582 28.3467 13.4973C28.3189 13.3501 28.2828 13.2045 28.2387 13.0613C28.1024 12.6034 27.9331 12.156 27.732 11.7227C27.212 10.5893 26.276 9.024 24.6253 7.37333C22.9747 5.72267 21.4107 4.788 20.276 4.268C19.8431 4.06698 19.3961 3.89765 18.9387 3.76133C18.7983 3.72192 18.6569 3.68635 18.5147 3.65467C18.2529 3.61074 18.0188 3.46588 17.8628 3.25121C17.7067 3.03654 17.6411 2.76921 17.68 2.50667Z" fill="var(--fill-0, white)"/>
<path id="Vector_2" fill-rule="evenodd" clip-rule="evenodd" d="M17.9813 7.10667C18.0173 6.98032 18.0778 6.86229 18.1594 6.75932C18.2409 6.65636 18.342 6.57048 18.4568 6.50659C18.5716 6.4427 18.6978 6.40205 18.8283 6.38696C18.9588 6.37188 19.091 6.38265 19.2173 6.41867L19.2213 6.42L19.2253 6.42133L19.236 6.424L19.2627 6.432L19.3373 6.45867C19.3969 6.47911 19.4756 6.51022 19.5733 6.552C19.768 6.63467 20.0333 6.76267 20.36 6.956C21.012 7.34267 21.9027 7.98267 22.9493 9.03067C23.996 10.0773 24.6373 10.968 25.024 11.62C25.2173 11.9467 25.3453 12.212 25.428 12.4067C25.4723 12.5085 25.5123 12.6122 25.548 12.7173L25.5547 12.744L25.5587 12.7547V12.7587L25.56 12.76C25.56 12.76 25.56 12.7627 24.6 13.0373L25.56 12.7627C25.6277 13.015 25.594 13.2837 25.4661 13.5115C25.3382 13.7393 25.1263 13.908 24.8756 13.9815C24.6249 14.055 24.3554 14.0275 24.1248 13.9049C23.8941 13.7823 23.7206 13.5742 23.6413 13.3253L23.6373 13.312L23.5907 13.1947C23.5056 13.0039 23.4095 12.8182 23.3027 12.6387C23.0053 12.1373 22.468 11.3773 21.5347 10.444C20.6013 9.51067 19.8427 8.97467 19.34 8.67733C19.1241 8.55059 18.8995 8.4392 18.668 8.344L18.6547 8.33867C18.4028 8.26294 18.1909 8.09104 18.0649 7.8602C17.9388 7.62935 17.9088 7.35948 17.9813 7.10667Z" fill="var(--fill-0, white)"/>
</g>
</svg>
