<svg preserveAspectRatio="none" width="100%" height="100%" overflow="visible" style="display: block;" viewBox="0 0 32 32" fill="none" xmlns="http://www.w3.org/2000/svg">
<g id="Contact Icon">
<path id="Vector" d="M12.6667 26.6667V29.3333C12.6667 29.5985 12.772 29.8529 12.9596 30.0404C13.1471 30.228 13.4015 30.3333 13.6667 30.3333C13.9319 30.3333 14.1862 30.228 14.3738 30.0404C14.5613 29.8529 14.6667 29.5985 14.6667 29.3333V26.6667H12.6667ZM20 26.6667H18V29.3333C18 29.5985 18.1054 29.8529 18.2929 30.0404C18.4804 30.228 18.7348 30.3333 19 30.3333C19.2652 30.3333 19.5196 30.228 19.7071 30.0404C19.8946 29.8529 20 29.5985 20 29.3333V26.6667Z" fill="var(--fill-0, white)"/>
<path id="Vector_2" fill-rule="evenodd" clip-rule="evenodd" d="M23.18 8.78L23.5213 8.71067C24.0757 8.60148 24.6498 8.65472 25.1747 8.864C26.0947 9.23333 27.1027 9.30133 28.0613 9.06133L28.1427 9.04133C28.8413 8.86667 29.3333 8.21733 29.3333 7.47067V4.63067C29.3333 3.64667 28.448 2.92133 27.5267 3.152C26.9987 3.28533 26.444 3.24667 25.936 3.044L25.8387 3.004C24.993 2.66301 24.0659 2.57726 23.172 2.75733L22.5733 2.87733C21.8533 3.02133 21.3333 3.67733 21.3333 4.43733V13.708C21.3333 14.2373 21.7467 14.6667 22.256 14.6667C22.3797 14.6644 22.5018 14.6378 22.6153 14.5883C22.7287 14.5388 22.8313 14.4674 22.9171 14.3783C23.0029 14.2891 23.0703 14.1839 23.1154 14.0687C23.1605 13.9534 23.1825 13.8304 23.18 13.7067V8.78Z" fill="var(--fill-0, white)"/>
<path id="Vector_3" d="M19.3333 8V13.7067C19.3333 15.2693 20.5707 16.6667 22.256 16.6667C23.9413 16.6667 25.18 15.2693 25.18 13.7067V10.972C26.1933 11.2453 27.26 11.2787 28.2933 11.0613C28.9493 12.184 29.3333 13.5413 29.3333 15.0013V23.2347C29.3333 25.1293 28.016 26.6667 26.3907 26.6667H16.6667V15C16.6667 12.2933 15.5573 9.70133 13.7107 8H19.3333Z" fill="var(--fill-0, white)"/>
<path id="Vector_4" fill-rule="evenodd" clip-rule="evenodd" d="M2.66667 15C2.66667 11.1333 5.35333 8 8.66667 8C11.98 8 14.6667 11.1333 14.6667 15V26.6667H5.644C4 26.6667 2.66667 25.112 2.66667 23.1933V15ZM5.66667 21.3333C5.66667 21.0681 5.77202 20.8138 5.95956 20.6262C6.1471 20.4387 6.40145 20.3333 6.66667 20.3333H10.6667C10.9319 20.3333 11.1862 20.4387 11.3738 20.6262C11.5613 20.8138 11.6667 21.0681 11.6667 21.3333C11.6667 21.5985 11.5613 21.8529 11.3738 22.0404C11.1862 22.228 10.9319 22.3333 10.6667 22.3333H6.66667C6.40145 22.3333 6.1471 22.228 5.95956 22.0404C5.77202 21.8529 5.66667 21.5985 5.66667 21.3333Z" fill="var(--fill-0, white)"/>
</g>
</svg>
