<svg preserveAspectRatio="none" width="100%" height="100%" overflow="visible" style="display: block;" viewBox="0 0 32 32" fill="none" xmlns="http://www.w3.org/2000/svg">
<g id="Contact Icon">
<path id="Vector" fill-rule="evenodd" clip-rule="evenodd" d="M20 2.66667H22.6667C25.1813 2.66667 26.4373 2.66667 27.2187 3.448C28 4.22933 28 5.48533 28 8V28.3333H29.3333C29.5985 28.3333 29.8529 28.4387 30.0404 28.6262C30.228 28.8138 30.3333 29.0681 30.3333 29.3333C30.3333 29.5985 30.228 29.8529 30.0404 30.0404C29.8529 30.228 29.5985 30.3333 29.3333 30.3333H2.66667C2.40145 30.3333 2.1471 30.228 1.95956 30.0404C1.77202 29.8529 1.66667 29.5985 1.66667 29.3333C1.66667 29.0681 1.77202 28.8138 1.95956 28.6262C2.1471 28.4387 2.40145 28.3333 2.66667 28.3333H4V12C4 9.48533 4 8.22933 4.78133 7.448C5.56267 6.66667 6.81867 6.66667 9.33333 6.66667H14.6667C17.1813 6.66667 18.4373 6.66667 19.2187 7.448C20 8.22933 20 9.48533 20 12V28.3333H22V11.88C22 10.7267 22 9.668 21.884 8.808C21.7573 7.86 21.4573 6.85733 20.6333 6.03467C19.8093 5.20933 18.8067 4.90933 17.86 4.78133C17.0107 4.668 15.9693 4.66667 14.8347 4.66667C14.9467 4.15067 15.1347 3.76 15.448 3.448C16.2293 2.66667 17.4853 2.66667 20 2.66667ZM7 10.6667C7 10.4014 7.10536 10.1471 7.29289 9.95956C7.48043 9.77202 7.73478 9.66667 8 9.66667H16C16.2652 9.66667 16.5196 9.77202 16.7071 9.95956C16.8946 10.1471 17 10.4014 17 10.6667C17 10.9319 16.8946 11.1862 16.7071 11.3738C16.5196 11.5613 16.2652 11.6667 16 11.6667H8C7.73478 11.6667 7.48043 11.5613 7.29289 11.3738C7.10536 11.1862 7 10.9319 7 10.6667ZM7 14.6667C7 14.4014 7.10536 14.1471 7.29289 13.9596C7.48043 13.772 7.73478 13.6667 8 13.6667H16C16.2652 13.6667 16.5196 13.772 16.7071 13.9596C16.8946 14.1471 17 14.4014 17 14.6667C17 14.9319 16.8946 15.1862 16.7071 15.3738C16.5196 15.5613 16.2652 15.6667 16 15.6667H8C7.73478 15.6667 7.48043 15.5613 7.29289 15.3738C7.10536 15.1862 7 14.9319 7 14.6667ZM7 18.6667C7 18.4014 7.10536 18.1471 7.29289 17.9596C7.48043 17.772 7.73478 17.6667 8 17.6667H16C16.2652 17.6667 16.5196 17.772 16.7071 17.9596C16.8946 18.1471 17 18.4014 17 18.6667C17 18.9319 16.8946 19.1862 16.7071 19.3738C16.5196 19.5613 16.2652 19.6667 16 19.6667H8C7.73478 19.6667 7.48043 19.5613 7.29289 19.3738C7.10536 19.1862 7 18.9319 7 18.6667ZM12 24.3333C12.2652 24.3333 12.5196 24.4387 12.7071 24.6262C12.8946 24.8138 13 25.0681 13 25.3333V28.3333H11V25.3333C11 25.0681 11.1054 24.8138 11.2929 24.6262C11.4804 24.4387 11.7348 24.3333 12 24.3333Z" fill="var(--fill-0, white)"/>
</g>
</svg>
