<svg preserveAspectRatio="none" width="100%" height="100%" overflow="visible" style="display: block;" viewBox="0 0 54 54" fill="none" xmlns="http://www.w3.org/2000/svg">
<g id="Feature Icon">
<path id="Vector" fill-rule="evenodd" clip-rule="evenodd" d="M45.9225 22.185C45.7913 22.1789 45.66 22.1767 45.5288 22.1782H40.05C35.568 22.1782 31.7295 25.7355 31.7295 30.375C31.7295 35.0145 35.568 38.5717 40.0523 38.5717H45.5265C45.6645 38.5732 45.7958 38.5702 45.9203 38.5627C46.8451 38.5027 47.7166 38.109 48.373 37.4547C49.0293 36.8004 49.4258 35.9301 49.4888 35.0055C49.4978 34.8727 49.4978 34.731 49.4978 34.6005V26.1495C49.4978 26.019 49.4978 25.8773 49.4888 25.7445C49.4259 24.8202 49.0297 23.9502 48.3738 23.296C47.7179 22.6417 46.8469 22.2478 45.9225 22.1872M39.5707 32.562C40.725 32.562 41.6632 31.5855 41.6632 30.3772C41.6632 29.169 40.725 28.1925 39.5707 28.1925C38.4165 28.1925 37.4805 29.169 37.4805 30.3772C37.4805 31.5855 38.4142 32.562 39.5707 32.562Z" fill="var(--fill-0, #B6F500)"/>
<path id="Vector_2" fill-rule="evenodd" clip-rule="evenodd" d="M45.5265 41.85C45.6019 41.8474 45.6768 41.8625 45.7453 41.8941C45.8138 41.9257 45.8739 41.973 45.9207 42.0321C45.9676 42.0912 45.9999 42.1605 46.015 42.2344C46.0302 42.3083 46.0278 42.3847 46.008 42.4575C45.5715 44.0145 44.8808 45.342 43.7715 46.458C42.1493 48.0938 40.0905 48.8205 37.548 49.1647C35.0775 49.5 31.923 49.5 27.936 49.5H23.3527C19.368 49.5 16.2112 49.5 13.7407 49.1647C11.1982 48.8205 9.1395 48.0938 7.51725 46.458C5.895 44.8268 5.175 42.75 4.833 40.1895C4.5 37.6965 4.5 34.515 4.5 30.4988V30.2512C4.5 26.235 4.5 23.0512 4.833 20.5627C5.175 18 5.895 15.93 7.515 14.2897C9.13725 12.6562 11.196 11.9273 13.7385 11.5853C16.2112 11.25 19.368 11.25 23.3527 11.25H27.936C31.9208 11.25 35.0775 11.25 37.548 11.5853C40.0905 11.9295 42.1493 12.6562 43.7715 14.2897C44.8808 15.408 45.5715 16.7355 46.008 18.2947C46.0274 18.3674 46.0294 18.4436 46.0141 18.5171C45.9987 18.5907 45.9664 18.6597 45.9196 18.7185C45.8728 18.7774 45.8128 18.8244 45.7446 18.8559C45.6763 18.8874 45.6016 18.9025 45.5265 18.9H40.0523C33.9008 18.9 28.4805 23.7982 28.4805 30.375C28.4805 36.9518 33.903 41.85 40.0545 41.85H45.5265ZM12.6315 19.9935C12.4173 19.9944 12.2053 20.0375 12.0078 20.1203C11.8102 20.203 11.6309 20.3239 11.48 20.4761C11.3292 20.6282 11.2097 20.8085 11.1286 21.0067C11.0474 21.205 11.0061 21.4173 11.007 21.6315C11.007 22.5383 11.7337 23.2718 12.6315 23.2718H21.3075C22.2075 23.2718 22.9342 22.5383 22.9342 21.6315C22.9354 21.1987 22.7648 20.783 22.4598 20.4759C22.1548 20.1688 21.7403 19.9953 21.3075 19.9935H12.6315Z" fill="var(--fill-0, #B6F500)"/>
<path id="Vector_3" d="M17.4982 9.054L21.9037 5.80725C23.0535 4.95768 24.4454 4.49922 25.875 4.49922C27.3046 4.49922 28.6965 4.95768 29.8462 5.80725L34.2765 9.072C32.4225 9 30.3525 9 28.0867 9H23.2042C21.1297 9 19.224 9 17.4982 9.054Z" fill="var(--fill-0, #B6F500)"/>
</g>
</svg>
