<svg preserveAspectRatio="none" width="100%" height="100%" overflow="visible" style="display: block;" viewBox="0 0 54 54" fill="none" xmlns="http://www.w3.org/2000/svg">
<g id="Feature Icon">
<path id="Vector" d="M4.5 32.625C4.5 29.4638 4.5 27.8842 5.25825 26.7502C5.58665 26.2587 6.00869 25.8366 6.50025 25.5082C7.63425 24.75 9.216 24.75 12.375 24.75C15.534 24.75 17.1158 24.75 18.2498 25.5082C18.7413 25.8366 19.1634 26.2587 19.4918 26.7502C20.25 27.8842 20.25 29.466 20.25 32.625V41.625C20.25 44.784 20.25 46.3658 19.4918 47.4998C19.1634 47.9913 18.7413 48.4134 18.2498 48.7418C17.1158 49.5 15.534 49.5 12.375 49.5C9.216 49.5 7.63425 49.5 6.50025 48.7418C6.00869 48.4134 5.58665 47.9913 5.25825 47.4998C4.5 46.3658 4.5 44.784 4.5 41.625V32.625Z" fill="var(--fill-0, #B6F500)"/>
<path id="Vector_2" fill-rule="evenodd" clip-rule="evenodd" d="M49.5 22.5V31.5C49.5 39.9848 49.5 44.2282 46.863 46.863C44.226 49.4977 39.9848 49.5 31.5 49.5C27.675 49.5 24.7163 49.5 22.374 49.2592C23.1278 48.078 23.3955 46.8248 23.5125 45.6638C23.625 44.559 23.625 43.2248 23.625 41.7735V32.4765C23.625 31.0253 23.625 29.691 23.5125 28.5863C23.391 27.387 23.1075 26.0888 22.2975 24.8738C21.7226 24.0143 20.984 23.2765 20.124 22.7025C18.909 21.8925 17.613 21.609 16.4115 21.4875C15.4433 21.4051 14.4717 21.3676 13.5 21.375C13.5045 13.635 13.6192 9.6525 16.137 7.137C18.7718 4.5 23.0153 4.5 31.5 4.5C39.9848 4.5 44.2283 4.5 46.863 7.137C49.4978 9.774 49.5 14.0153 49.5 22.5ZM25.3125 42.75C25.3125 42.3024 25.4903 41.8732 25.8068 41.5568C26.1232 41.2403 26.5524 41.0625 27 41.0625H38.25C38.6976 41.0625 39.1268 41.2403 39.4432 41.5568C39.7597 41.8732 39.9375 42.3024 39.9375 42.75C39.9375 43.1976 39.7597 43.6268 39.4432 43.9432C39.1268 44.2597 38.6976 44.4375 38.25 44.4375H27C26.5524 44.4375 26.1232 44.2597 25.8068 43.9432C25.4903 43.6268 25.3125 43.1976 25.3125 42.75Z" fill="var(--fill-0, #B6F500)"/>
</g>
</svg>
