<svg preserveAspectRatio="none" width="100%" height="100%" overflow="visible" style="display: block;" viewBox="0 0 54 54" fill="none" xmlns="http://www.w3.org/2000/svg">
<g id="Feature Icon">
<path id="Vector" d="M24.75 45H14.625C11.2125 45 8.29725 43.8187 5.87925 41.4562C3.46125 39.0937 2.2515 36.2062 2.25 32.7937C2.25 29.8687 3.13125 27.2625 4.89375 24.975C6.65625 22.6875 8.9625 21.225 11.8125 20.5875C12.75 17.1375 14.625 14.3438 17.4375 12.2063C20.25 10.0688 23.4375 9 27 9C31.3875 9 35.1097 10.5285 38.1667 13.5855C41.2237 16.6425 42.7515 20.364 42.75 24.75C45.3375 25.05 47.4848 26.166 49.1918 28.098C50.8988 30.03 51.7515 32.289 51.75 34.875C51.75 37.6875 50.766 40.0785 48.798 42.048C46.83 44.0175 44.439 45.0015 41.625 45H29.25V28.9125L32.85 32.4L36 29.25L27 20.25L18 29.25L21.15 32.4L24.75 28.9125V45Z" fill="var(--fill-0, #B6F500)"/>
</g>
</svg>
