<svg preserveAspectRatio="none" width="100%" height="100%" overflow="visible" style="display: block;" viewBox="0 0 54 54" fill="none" xmlns="http://www.w3.org/2000/svg">
<g id="Feature Icon">
<path id="Vector" fill-rule="evenodd" clip-rule="evenodd" d="M7.6005 11.4345C6.75 12.645 6.75 16.245 6.75 23.4382V26.9798C6.75 39.6653 16.2878 45.8235 22.2728 48.4358C23.895 49.1445 24.7072 49.5 27 49.5C29.295 49.5 30.105 49.1445 31.7272 48.4358C37.7122 45.8213 47.25 39.6675 47.25 26.9798V23.4382C47.25 16.2427 47.25 12.645 46.3995 11.4345C45.5512 10.2262 42.1695 9.0675 35.4037 6.75225L34.1145 6.31125C30.5887 5.103 28.827 4.5 27 4.5C25.173 4.5 23.4113 5.103 19.8855 6.31125L18.5963 6.75C11.8305 9.0675 8.44875 10.2262 7.6005 11.4345ZM30.375 33.75C30.375 34.3467 30.1379 34.919 29.716 35.341C29.294 35.7629 28.7217 36 28.125 36H25.875C25.2783 36 24.706 35.7629 24.284 35.341C23.8621 34.919 23.625 34.3467 23.625 33.75V30.5977C22.3354 29.8564 21.3269 28.7097 20.7563 27.3359C20.1858 25.9622 20.0851 24.4384 20.4701 23.0016C20.855 21.5647 21.7039 20.2953 22.8849 19.3908C24.0658 18.4863 25.5125 17.9973 27 18C28.4866 17.9992 29.9318 18.4892 31.1114 19.3939C32.291 20.2985 33.139 21.5673 33.5237 23.0032C33.9084 24.4392 33.8083 25.9619 33.2389 27.3352C32.6696 28.7084 31.6629 29.8553 30.375 30.5977V33.75Z" fill="var(--fill-0, #B6F500)"/>
</g>
</svg>
