<svg preserveAspectRatio="none" width="100%" height="100%" overflow="visible" style="display: block;" viewBox="0 0 1448 365" fill="none" xmlns="http://www.w3.org/2000/svg">
<g id="Footer">
<g id="&#194;&#169;2025">
<path d="M241.117 258.934C227.475 266.289 210.686 269.966 190.748 269.966C166.613 269.966 145.626 261.911 127.788 245.801C110.298 229.691 101.554 208.678 101.554 182.762C101.904 156.496 110.298 135.133 126.738 118.672C143.528 102.212 165.914 93.9821 193.896 93.9821C211.036 93.9821 226.776 97.8345 241.117 105.539V154.92C228.874 147.215 214.883 143.363 199.143 143.363C189.349 143.363 180.605 146.69 172.909 153.344C165.214 159.998 161.192 169.804 160.842 182.762C161.541 195.02 165.389 204.651 172.385 211.655C179.73 218.309 188.3 221.636 198.094 221.636C213.134 221.636 227.475 217.434 241.117 209.028V258.934ZM366.513 182.237C366.513 232.318 348.849 275.219 313.521 310.942C278.194 346.314 235.52 364 185.501 364C135.483 364 92.6345 346.314 56.9567 310.942C21.6288 275.219 3.96484 232.318 3.96484 182.237C3.96484 132.156 21.6288 89.4293 56.9567 54.0574C92.6345 18.6855 135.483 0.999512 185.501 0.999512C235.52 0.999512 278.194 18.8606 313.521 54.5827C348.849 89.9546 366.513 132.506 366.513 182.237ZM54.8581 182.762C54.8581 220.936 67.1004 252.28 91.5851 276.795C116.42 301.311 147.725 313.568 185.501 313.568C222.928 313.568 253.884 301.311 278.368 276.795C303.203 252.28 315.62 220.936 315.62 182.762C315.62 145.289 303.203 114.295 278.368 89.7796C253.884 64.9141 222.928 52.4814 185.501 52.4814C147.725 52.4814 116.42 64.9141 91.5851 89.7796C67.1004 114.295 54.8581 145.289 54.8581 182.762Z" fill="var(--fill-0, white)"/>
<path d="M629.239 359.797H400.482V300.435C438.258 274.519 471.487 245.801 500.17 214.282C529.201 182.762 543.717 154.92 543.717 130.755C543.717 116.046 539.345 104.489 530.601 96.0834C521.856 87.328 508.564 82.9503 490.725 82.9503C460.994 82.9503 432.837 93.9821 406.253 116.046V41.9749C417.796 33.5697 432.837 26.3903 451.375 20.4366C469.913 14.4829 488.102 11.506 505.941 11.506C541.619 11.506 569.951 20.9619 590.938 39.8736C612.275 58.4351 622.943 84.5263 622.943 118.147C622.943 178.735 584.467 237.571 507.515 294.657H629.239V359.797Z" fill="var(--fill-0, white)"/>
<path d="M916.222 186.439C916.222 240.373 905.554 283.45 884.217 315.67C863.23 347.89 832.1 364 790.826 364C749.551 364 718.421 348.065 697.434 316.195C676.447 283.975 665.954 240.723 665.954 186.439C665.954 131.806 676.447 88.5538 697.434 56.684C718.421 24.8143 749.551 8.87939 790.826 8.87939C832.1 8.87939 863.23 24.8143 884.217 56.684C905.554 88.5538 916.222 131.806 916.222 186.439ZM790.826 77.1717C759.695 77.1717 744.13 113.594 744.13 186.439C744.13 259.285 759.695 295.707 790.826 295.707C822.306 295.707 838.046 259.285 838.046 186.439C838.046 113.594 822.306 77.1717 790.826 77.1717Z" fill="var(--fill-0, white)"/>
<path d="M1179.02 359.797H950.261V300.435C988.037 274.519 1021.27 245.801 1049.95 214.282C1078.98 182.762 1093.5 154.92 1093.5 130.755C1093.5 116.046 1089.12 104.489 1080.38 96.0834C1071.63 87.328 1058.34 82.9503 1040.5 82.9503C1010.77 82.9503 982.615 93.9821 956.032 116.046V41.9749C967.575 33.5697 982.615 26.3903 1001.15 20.4366C1019.69 14.4829 1037.88 11.506 1055.72 11.506C1091.4 11.506 1119.73 20.9619 1140.72 39.8736C1162.05 58.4351 1172.72 84.5263 1172.72 118.147C1172.72 178.735 1134.25 237.571 1057.29 294.657H1179.02V359.797Z" fill="var(--fill-0, white)"/>
<path d="M1443.96 244.751C1443.96 280.473 1432.07 309.191 1408.29 330.904C1384.85 352.267 1351.45 362.949 1308.07 362.949C1269.95 362.949 1239.17 356.82 1215.73 344.562V272.068C1239.52 286.777 1266.1 294.131 1295.48 294.131C1342.35 294.131 1365.79 277.321 1365.79 243.7C1365.79 231.092 1360.89 221.111 1351.1 213.756C1341.65 206.402 1327.31 202.725 1308.07 202.725C1281.14 202.725 1255.26 208.503 1230.42 220.06V15.1833H1422.98V80.3237H1304.93V138.635C1312.62 137.584 1320.32 137.059 1328.01 137.059C1365.44 137.059 1394.12 146.69 1414.06 165.952C1434 185.214 1443.96 211.48 1443.96 244.751Z" fill="var(--fill-0, white)"/>
</g>
</g>
</svg>
