<svg preserveAspectRatio="none" width="100%" height="100%" overflow="visible" style="display: block;" viewBox="0 0 205 62" fill="none" xmlns="http://www.w3.org/2000/svg">
<g id="Logo">
<g id="Vector">
<path d="M16.1788 61.541V60.3594H16.3836V61.541C16.3836 61.5975 16.3378 61.6434 16.2812 61.6434C16.2247 61.6434 16.1788 61.5975 16.1788 61.541ZM16.3836 55.6335V57.9964H16.1788V55.6335H16.3836ZM16.3836 50.9074V53.2704H16.1788V50.9074H16.3836ZM16.3836 46.1813V48.5443H16.1788V46.1813H16.3836ZM16.3836 41.4552V43.8184H16.1788V41.4552H16.3836ZM16.3836 36.7291V39.0923H16.1788V36.7291H16.3836ZM16.3836 32.0032V34.3662H16.1788V32.0032H16.3836ZM16.3836 27.2772V29.6401H16.1788V27.2772H16.3836ZM16.3836 22.5511V24.9142H16.1788V22.5511H16.3836ZM16.3836 17.825V20.1881H16.1788V17.825H16.3836ZM16.3836 13.0991V15.462H16.1788V13.0991H16.3836ZM16.3836 8.373V10.7359H16.1788V8.373H16.3836ZM16.3836 3.64691V6.00986H16.1788V3.64691H16.3836ZM16.1788 0.102398C16.1788 0.045845 16.2247 0 16.2812 0C16.3378 0 16.3836 0.045845 16.3836 0.102398V1.28397H16.1788V0.102398Z" fill="#B6F500"/>
<path d="M188.821 61.541V60.3594H189.026V61.541C189.026 61.5975 188.98 61.6434 188.924 61.6434C188.867 61.6434 188.821 61.5975 188.821 61.541ZM189.026 55.6335V57.9964H188.821V55.6335H189.026ZM189.026 50.9074V53.2704H188.821V50.9074H189.026ZM189.026 46.1813V48.5443H188.821V46.1813H189.026ZM189.026 41.4552V43.8184H188.821V41.4552H189.026ZM189.026 36.7291V39.0923H188.821V36.7291H189.026ZM189.026 32.0032V34.3662H188.821V32.0032H189.026ZM189.026 27.2772V29.6401H188.821V27.2772H189.026ZM189.026 22.5511V24.9142H188.821V22.5511H189.026ZM189.026 17.825V20.1881H188.821V17.825H189.026ZM189.026 13.0991V15.462H188.821V13.0991H189.026ZM189.026 8.373V10.7359H188.821V8.373H189.026ZM189.026 3.64691V6.00986H188.821V3.64691H189.026ZM188.821 0.102398C188.821 0.045845 188.867 0 188.924 0C188.98 0 189.026 0.045845 189.026 0.102398V1.28397H188.821V0.102398Z" fill="#B6F500"/>
<path d="M42.1033 19.3847V26.8677L29.2689 35.6301L16.2812 26.8677V19.3847L29.1922 28.6512L42.1033 19.3847Z" fill="#B6F500"/>
<path d="M42.1033 38.2087V44.3382L16.2812 44.3382V38.2087H42.1033Z" fill="#B6F500"/>
<path d="M164.342 44.0502H158.749V19.6557H164.887L170.589 29.7537C171.388 31.1773 172.078 32.5165 172.659 33.7712C173.265 35.0018 173.652 35.8704 173.821 36.3771L174.112 37.1734C173.87 35.3878 173.749 32.9146 173.749 29.7537V19.6557H179.342V44.0502H173.204L167.357 33.9521C166.582 32.6492 165.892 31.3703 165.287 30.1156C164.705 28.8368 164.306 27.8957 164.088 27.2925L163.798 26.3877C164.161 28.5593 164.342 31.0808 164.342 33.9521V44.0502Z" fill="#B6F500"/>
<path d="M154.933 31.7781C154.933 35.5181 153.844 38.5463 151.665 40.8627C149.51 43.1549 146.629 44.3011 143.021 44.3011C139.389 44.3011 136.496 43.1549 134.341 40.8627C132.186 38.5704 131.108 35.5422 131.108 31.7781C131.108 28.0381 132.186 25.0219 134.341 22.7297C136.52 20.4133 139.413 19.2551 143.021 19.2551C146.653 19.2551 149.546 20.4012 151.701 22.6935C153.856 24.9857 154.933 28.0139 154.933 31.7781ZM138.699 26.349C137.634 27.6761 137.101 29.4858 137.101 31.7781C137.101 34.0703 137.634 35.8921 138.699 37.2433C139.764 38.5704 141.205 39.234 143.021 39.234C144.837 39.234 146.277 38.5704 147.343 37.2433C148.408 35.8921 148.941 34.0703 148.941 31.7781C148.941 29.4858 148.408 27.6761 147.343 26.349C146.277 24.9978 144.837 24.3222 143.021 24.3222C141.205 24.3222 139.764 24.9978 138.699 26.349Z" fill="#B6F500"/>
<path d="M128.565 24.1437H122.609V44.0502H116.979V24.1437H110.987V19.6557H128.565V24.1437Z" fill="#B6F500"/>
<path d="M107.527 44.0523H102.225V25.7021H107.527V44.0523ZM107.055 18.21C107.66 18.8133 107.963 19.5371 107.963 20.3817C107.963 21.2262 107.66 21.95 107.055 22.5533C106.45 23.1565 105.723 23.4581 104.876 23.4581C104.028 23.4581 103.302 23.1565 102.697 22.5533C102.091 21.95 101.789 21.2262 101.789 20.3817C101.789 19.5371 102.091 18.8133 102.697 18.21C103.302 17.6068 104.028 17.3052 104.876 17.3052C105.723 17.3052 106.45 17.6068 107.055 18.21Z" fill="#B6F500"/>
<path d="M97.6702 41.8046C95.3458 43.4936 92.4161 44.3381 88.8811 44.3381C84.9587 44.3381 81.7748 43.2161 79.3293 40.9721C76.8839 38.7281 75.6611 35.6758 75.6611 31.8151C75.6611 28.0027 76.9323 24.9504 79.4746 22.6581C82.0411 20.3659 85.2855 19.2197 89.208 19.2197C91.9682 19.2197 94.3531 19.7264 96.3627 20.7399V26.3137C94.0383 24.9866 91.6534 24.323 89.208 24.323C86.9078 24.323 85.0797 25.0107 83.7238 26.3861C82.368 27.7373 81.69 29.547 81.69 31.8151C81.69 34.1074 82.3558 35.9291 83.6875 37.2804C85.0192 38.6316 86.8351 39.3072 89.1353 39.3072C90.1764 39.3072 91.2055 39.1504 92.2224 38.8367V34.2401H88.2637V29.4987H97.6702V41.8046Z" fill="#B6F500"/>
<path d="M73.6012 44.0502H66.5917L58.3837 31.9253L66.3012 19.6557H72.9475L64.9211 31.8529L73.6012 44.0502ZM58.1295 44.0502H52.5364V19.6557H58.1295V44.0502Z" fill="#B6F500"/>
<path d="M185.201 22.3401H184.451V18.9031H185.456C186.327 18.9031 186.762 19.2649 186.762 19.9884C186.762 20.4507 186.577 20.7723 186.207 20.9532L187.077 22.3401H186.162L185.426 21.0889H185.201V22.3401ZM185.502 19.5362H185.201V20.4708H185.562C185.842 20.4708 185.982 20.31 185.982 19.9884C185.982 19.687 185.822 19.5362 185.502 19.5362ZM187.948 18.285C188.598 18.9282 188.924 19.7473 188.924 20.7422C188.924 21.7371 188.598 22.5561 187.948 23.1993C187.308 23.8324 186.492 24.149 185.502 24.149C184.511 24.149 183.69 23.8324 183.04 23.1993C182.4 22.5561 182.079 21.7371 182.079 20.7422C182.079 19.7372 182.4 18.9131 183.04 18.27C183.69 17.6268 184.511 17.3052 185.502 17.3052C186.492 17.3052 187.308 17.6318 187.948 18.285ZM182.935 20.7422C182.935 21.516 183.17 22.1441 183.64 22.6265C184.111 23.0988 184.736 23.335 185.517 23.335C186.297 23.335 186.917 23.0988 187.378 22.6265C187.848 22.1441 188.083 21.516 188.083 20.7422C188.083 19.9583 187.848 19.3252 187.378 18.8428C186.917 18.3604 186.297 18.1192 185.517 18.1192C184.736 18.1192 184.111 18.3604 183.64 18.8428C183.17 19.3252 182.935 19.9583 182.935 20.7422Z" fill="#B6F500"/>
<path d="M1.32137 17.2028V17.4076H0.102398C0.045845 17.4076 0 17.3617 0 17.3052C0 17.2486 0.045845 17.2028 0.102398 17.2028H1.32137ZM6.19745 17.2028V17.4076H3.75951V17.2028H6.19745ZM11.0735 17.2028V17.4076H8.6356V17.2028H11.0735ZM15.9496 17.2028V17.4076H13.5117V17.2028H15.9496ZM20.8257 17.2028V17.4076H18.3878V17.2028H20.8257ZM25.7018 17.2028V17.4076H23.2639V17.2028H25.7018ZM30.5779 17.2028V17.4076H28.1397V17.2028H30.5779ZM35.454 17.2028V17.4076H33.0158V17.2028H35.454ZM40.3301 17.2028V17.4076H37.8919V17.2028H40.3301ZM45.2061 17.2028V17.4076H42.768V17.2028H45.2061ZM50.0822 17.2028V17.4076H47.6441V17.2028H50.0822ZM54.9583 17.2028V17.4076H52.5202V17.2028H54.9583ZM59.8344 17.2028V17.4076H57.3963V17.2028H59.8344ZM64.7105 17.2028V17.4076H62.2723V17.2028H64.7105ZM69.5864 17.2028V17.4076H67.1484V17.2028H69.5864ZM74.4625 17.2028V17.4076H72.0245V17.2028H74.4625ZM79.3385 17.2028V17.4076H76.9006V17.2028H79.3385ZM84.2146 17.2028V17.4076H81.7767V17.2028H84.2146ZM89.0907 17.2028V17.4076H86.6528V17.2028H89.0907ZM93.9668 17.2028V17.4076H91.5289V17.2028H93.9668ZM98.8429 17.2028V17.4076H96.4049V17.2028H98.8429ZM103.719 17.2028V17.4076H101.281V17.2028H103.719ZM108.595 17.2028V17.4076H106.157V17.2028H108.595ZM113.471 17.2028V17.4076H111.033V17.2028H113.471ZM118.347 17.2028V17.4076H115.909V17.2028H118.347ZM123.223 17.2028V17.4076H120.785V17.2028H123.223ZM128.099 17.2028V17.4076H125.661V17.2028H128.099ZM132.975 17.2028V17.4076H130.537V17.2028H132.975ZM137.852 17.2028V17.4076H135.413V17.2028H137.852ZM142.728 17.2028V17.4076H140.29V17.2028H142.728ZM147.604 17.2028V17.4076H145.166V17.2028H147.604ZM152.48 17.2028V17.4076H150.042V17.2028H152.48ZM157.356 17.2028V17.4076H154.918V17.2028H157.356ZM162.232 17.2028V17.4076H159.794V17.2028H162.232ZM167.108 17.2028V17.4076H164.67V17.2028H167.108ZM171.984 17.2028V17.4076H169.546V17.2028H171.984ZM176.86 17.2028V17.4076H174.422V17.2028H176.86ZM181.736 17.2028V17.4076H179.298V17.2028H181.736ZM186.612 17.2028V17.4076H184.174V17.2028H186.612ZM191.489 17.2028V17.4076H189.051V17.2028H191.489ZM196.365 17.2028V17.4076H193.926V17.2028H196.365ZM201.241 17.2028V17.4076H198.803V17.2028H201.241ZM204.898 17.2028C204.954 17.2028 205 17.2486 205 17.3052C205 17.3617 204.954 17.4076 204.898 17.4076H203.679V17.2028H204.898Z" fill="#B6F500"/>
<path d="M1.32137 44.2358V44.4406H0.102398C0.045845 44.4406 0 44.3947 0 44.3382C0 44.2816 0.045845 44.2358 0.102398 44.2358H1.32137ZM6.19745 44.2358V44.4406H3.75951V44.2358H6.19745ZM11.0735 44.2358V44.4406H8.6356V44.2358H11.0735ZM15.9496 44.2358V44.4406H13.5117V44.2358H15.9496ZM20.8257 44.2358V44.4406H18.3878V44.2358H20.8257ZM25.7018 44.2358V44.4406H23.2639V44.2358H25.7018ZM30.5779 44.2358V44.4406H28.1397V44.2358H30.5779ZM35.454 44.2358V44.4406H33.0158V44.2358H35.454ZM40.3301 44.2358V44.4406H37.8919V44.2358H40.3301ZM45.2061 44.2358V44.4406H42.768V44.2358H45.2061ZM50.0822 44.2358V44.4406H47.6441V44.2358H50.0822ZM54.9583 44.2358V44.4406H52.5202V44.2358H54.9583ZM59.8344 44.2358V44.4406H57.3963V44.2358H59.8344ZM64.7105 44.2358V44.4406H62.2723V44.2358H64.7105ZM69.5864 44.2358V44.4406H67.1484V44.2358H69.5864ZM74.4625 44.2358V44.4406H72.0245V44.2358H74.4625ZM79.3385 44.2358V44.4406H76.9006V44.2358H79.3385ZM84.2146 44.2358V44.4406H81.7767V44.2358H84.2146ZM89.0907 44.2358V44.4406H86.6528V44.2358H89.0907ZM93.9668 44.2358V44.4406H91.5289V44.2358H93.9668ZM98.8429 44.2358V44.4406H96.4049V44.2358H98.8429ZM103.719 44.2358V44.4406H101.281V44.2358H103.719ZM108.595 44.2358V44.4406H106.157V44.2358H108.595ZM113.471 44.2358V44.4406H111.033V44.2358H113.471ZM118.347 44.2358V44.4406H115.909V44.2358H118.347ZM123.223 44.2358V44.4406H120.785V44.2358H123.223ZM128.099 44.2358V44.4406H125.661V44.2358H128.099ZM132.975 44.2358V44.4406H130.537V44.2358H132.975ZM137.852 44.2358V44.4406H135.413V44.2358H137.852ZM142.728 44.2358V44.4406H140.29V44.2358H142.728ZM147.604 44.2358V44.4406H145.166V44.2358H147.604ZM152.48 44.2358V44.4406H150.042V44.2358H152.48ZM157.356 44.2358V44.4406H154.918V44.2358H157.356ZM162.232 44.2358V44.4406H159.794V44.2358H162.232ZM167.108 44.2358V44.4406H164.67V44.2358H167.108ZM171.984 44.2358V44.4406H169.546V44.2358H171.984ZM176.86 44.2358V44.4406H174.422V44.2358H176.86ZM181.736 44.2358V44.4406H179.298V44.2358H181.736ZM186.612 44.2358V44.4406H184.174V44.2358H186.612ZM191.489 44.2358V44.4406H189.051V44.2358H191.489ZM196.365 44.2358V44.4406H193.926V44.2358H196.365ZM201.241 44.2358V44.4406H198.803V44.2358H201.241ZM204.898 44.2358C204.954 44.2358 205 44.2816 205 44.3382C205 44.3947 204.954 44.4406 204.898 44.4406H203.679V44.2358H204.898Z" fill="#B6F500"/>
</g>
</g>
</svg>
