<svg preserveAspectRatio="none" width="100%" height="100%" overflow="visible" style="display: block;" viewBox="0 0 177 48" fill="none" xmlns="http://www.w3.org/2000/svg">
<g id="Logo Container">
<g id="Logo">
<path d="M34.8842 13.8462V20.4896L23.51 28.2689L12 20.4896V13.8462L23.4421 22.073L34.8842 13.8462Z" fill="var(--fill-0, #B6F500)"/>
<path d="M34.8842 30.5583V36L12 36L12 30.5583H34.8842Z" fill="var(--fill-0, #B6F500)"/>
<path d="M143.215 35.7443H138.259V14.0868H143.698L148.752 23.0518C149.46 24.3157 150.071 25.5046 150.586 26.6186C151.123 27.7111 151.466 28.4823 151.616 28.9321L151.874 29.6391C151.659 28.0538 151.552 25.8581 151.552 23.0518V14.0868H156.508V35.7443H151.069L145.887 26.7792C145.2 25.6225 144.589 24.4871 144.052 23.3732C143.537 22.2378 143.183 21.4023 142.99 20.8668L142.733 20.0635C143.055 21.9914 143.215 24.23 143.215 26.7792V35.7443Z" fill="var(--fill-0, #B6F500)"/>
<path d="M134.877 24.8491C134.877 28.1695 133.911 30.8579 131.98 32.9144C130.07 34.9495 127.517 35.9671 124.32 35.9671C121.101 35.9671 118.537 34.9495 116.627 32.9144C114.718 30.8794 113.763 28.1909 113.763 24.8491C113.763 21.5287 114.718 18.851 116.627 16.8159C118.558 14.7594 121.123 13.7311 124.32 13.7311C127.539 13.7311 130.103 14.7487 132.012 16.7837C133.922 18.8188 134.877 21.5073 134.877 24.8491ZM120.49 20.0292C119.546 21.2074 119.073 22.814 119.073 24.8491C119.073 26.8842 119.546 28.5015 120.49 29.7012C121.434 30.8794 122.711 31.4685 124.32 31.4685C125.929 31.4685 127.206 30.8794 128.15 29.7012C129.094 28.5015 129.566 26.8842 129.566 24.8491C129.566 22.814 129.094 21.2074 128.15 20.0292C127.206 18.8295 125.929 18.2297 124.32 18.2297C122.711 18.2297 121.434 18.8295 120.49 20.0292Z" fill="var(--fill-0, #B6F500)"/>
<path d="M111.508 18.0712H106.23V35.7443H101.241V18.0712H95.9303V14.0868H111.508V18.0712Z" fill="var(--fill-0, #B6F500)"/>
<path d="M92.8644 35.7462H88.1651V19.4548H92.8644V35.7462ZM92.4459 12.8033C92.9824 13.3389 93.2506 13.9815 93.2506 14.7313C93.2506 15.4811 92.9824 16.1237 92.4459 16.6593C91.9095 17.1948 91.2658 17.4626 90.5148 17.4626C89.7637 17.4626 89.12 17.1948 88.5836 16.6593C88.0471 16.1237 87.7789 15.4811 87.7789 14.7313C87.7789 13.9815 88.0471 13.3389 88.5836 12.8033C89.12 12.2678 89.7637 12 90.5148 12C91.2658 12 91.9095 12.2678 92.4459 12.8033Z" fill="var(--fill-0, #B6F500)"/>
<path d="M84.1289 33.7507C82.069 35.2502 79.4726 36 76.3398 36C72.8637 36 70.042 35.0038 67.8748 33.0116C65.7076 31.0194 64.624 28.3095 64.624 24.882C64.624 21.4973 65.7505 18.7874 68.0035 16.7524C70.2781 14.7173 73.1534 13.6997 76.6295 13.6997C79.0757 13.6997 81.1892 14.1496 82.9702 15.0493V19.9978C80.9103 18.8196 78.7967 18.2305 76.6295 18.2305C74.591 18.2305 72.971 18.841 71.7694 20.062C70.5677 21.2617 69.9669 22.8683 69.9669 24.882C69.9669 26.9171 70.557 28.5344 71.7372 29.734C72.9173 30.9337 74.5267 31.5335 76.5651 31.5335C77.4878 31.5335 78.3998 31.3942 79.301 31.1158V27.0349H75.7927V22.8255H84.1289V33.7507Z" fill="var(--fill-0, #B6F500)"/>
<path d="M62.7984 35.7443H56.5864L49.3123 24.9798L56.3289 14.0868H62.219L55.1059 24.9155L62.7984 35.7443ZM49.087 35.7443H44.1303V14.0868H49.087V35.7443Z" fill="var(--fill-0, #B6F500)"/>
<path d="M161.701 16.47H161.036V13.4186H161.927C162.699 13.4186 163.085 13.7398 163.085 14.3822C163.085 14.7926 162.921 15.0781 162.592 15.2387L163.364 16.47H162.553L161.901 15.3592H161.701V16.47ZM161.967 13.9807H161.701V14.8105H162.021C162.269 14.8105 162.393 14.6677 162.393 14.3822C162.393 14.1145 162.251 13.9807 161.967 13.9807ZM164.135 12.8699C164.712 13.4409 165 14.1681 165 15.0514C165 15.9346 164.712 16.6618 164.135 17.2328C163.568 17.7949 162.845 18.0759 161.967 18.0759C161.089 18.0759 160.362 17.7949 159.786 17.2328C159.218 16.6618 158.935 15.9346 158.935 15.0514C158.935 14.1591 159.218 13.4275 159.786 12.8565C160.362 12.2855 161.089 12 161.967 12C162.845 12 163.568 12.29 164.135 12.8699ZM159.693 15.0514C159.693 15.7384 159.901 16.296 160.318 16.7243C160.735 17.1436 161.289 17.3533 161.981 17.3533C162.672 17.3533 163.222 17.1436 163.63 16.7243C164.047 16.296 164.255 15.7384 164.255 15.0514C164.255 14.3554 164.047 13.7933 163.63 13.3651C163.222 12.9368 162.672 12.7227 161.981 12.7227C161.289 12.7227 160.735 12.9368 160.318 13.3651C159.901 13.7933 159.693 14.3554 159.693 15.0514Z" fill="var(--fill-0, #B6F500)"/>
</g>
</g>
</svg>
