<svg preserveAspectRatio="none" width="100%" height="100%" overflow="visible" style="display: block;" viewBox="0 0 82 110" fill="none" xmlns="http://www.w3.org/2000/svg">
<g id="Service Icon Container">
<g id="Service Icon">
<path id="Vector" d="M29.3533 35.7133C29.3533 32.6467 31.87 30.16 34.9733 30.16C38.08 30.16 40.5967 32.6467 40.5967 35.7133C40.5967 38.78 38.08 41.27 34.9733 41.27C33.4913 41.278 32.0668 40.6971 31.013 39.6551C29.9591 38.6132 29.3621 37.1953 29.3533 35.7133Z" fill="var(--fill-0, #B6F500)"/>
<path id="Vector_2" fill-rule="evenodd" clip-rule="evenodd" d="M7.66667 35.7133C7.66667 26.7367 7.66667 22.2467 10.49 19.4567C13.3133 16.6667 17.8567 16.6667 26.9433 16.6667H43.01C52.0933 16.6667 56.6367 16.6667 59.46 19.4567C62.2833 22.2467 62.2833 26.7367 62.2833 35.7133C62.2833 44.6933 62.2833 49.1833 59.46 51.9733C56.6367 54.7633 52.0933 54.7633 43.0067 54.7633H26.9433C17.8567 54.7633 13.31 54.7633 10.49 51.9733C7.67 49.1833 7.66667 44.6933 7.66667 35.7133ZM24.5333 35.7133C24.5333 30.0133 29.2067 25.3967 34.9733 25.3967C40.74 25.3967 45.4167 30.0167 45.4167 35.7133C45.4167 41.41 40.7433 46.0333 34.9733 46.0333C29.2067 46.0333 24.5333 41.4133 24.5333 35.7133ZM14.8933 42.0667C14.8977 42.702 15.1539 43.3097 15.6057 43.7565C16.0575 44.2033 16.668 44.4527 17.3033 44.45C18.6367 44.45 19.7133 43.3833 19.7133 42.0667V29.3667C19.708 28.7319 19.4515 28.125 18.9998 27.679C18.5481 27.2329 17.9381 26.984 17.3033 26.9867C16.668 26.984 16.0575 27.2334 15.6057 27.6802C15.1539 28.1269 14.8977 28.7346 14.8933 29.37V42.0667ZM52.6467 44.45C51.3133 44.45 50.2367 43.3833 50.2367 42.0667V29.3667C50.2367 28.0533 51.3133 26.9867 52.6467 26.9867C53.98 26.9867 55.0533 28.0533 55.0533 29.37V42.07C55.0481 42.7042 54.792 43.3105 54.341 43.7565C53.89 44.2025 53.2809 44.4518 52.6467 44.45Z" fill="var(--fill-0, #B6F500)"/>
<path id="Vector_3" opacity="0.5" d="M14.55 54.0833C14.5944 54.5833 14.6478 55.0656 14.71 55.53C15.1 58.3867 15.93 60.7933 17.8633 62.7033C18.1389 62.9767 18.4244 63.2278 18.72 63.4567C20.6067 65.17 22.94 65.93 25.6867 66.2933C28.4733 66.6633 32.0133 66.6633 36.4067 66.6633H52.8233C57.2167 66.6633 60.7567 66.6633 63.5467 66.2933C66.4367 65.91 68.8733 65.0867 70.8067 63.1767C72.74 61.2667 73.5733 58.86 73.96 56.0033C74.3333 53.25 74.3333 49.75 74.3333 45.41V45.06C74.3333 40.72 74.3333 37.22 73.96 34.4667C73.57 31.61 72.74 29.2033 70.8067 27.2933C70.5357 27.0261 70.2497 26.7746 69.95 26.54C68.0633 24.8267 65.73 24.0667 62.9833 23.7033C62.529 23.6429 62.0733 23.5929 61.6167 23.5533C62.2833 26.3333 62.2833 30.1667 62.2833 35.7133C62.2833 44.6933 62.2833 49.18 59.46 51.9733C56.64 54.76 52.0933 54.76 43.0067 54.76H26.9433C21.27 54.76 17.37 54.76 14.55 54.0833Z" fill="var(--fill-0, #B6F500)"/>
</g>
<path id="Vector_4" d="M72.2618 91C77.6401 91 82 95.2533 82 100.5C82 105.747 77.6401 110 72.2618 110L9.73818 110C4.35993 110 2.26149e-07 105.747 0 100.5C-2.26149e-07 95.2533 4.35993 91 9.73818 91H72.2618Z" fill="var(--fill-0, #B6F500)"/>
</g>
</svg>
