<svg preserveAspectRatio="none" width="100%" height="100%" overflow="visible" style="display: block;" viewBox="0 0 82 110" fill="none" xmlns="http://www.w3.org/2000/svg">
<g id="Service Icon Container">
<g id="Service Icon">
<path id="Vector" opacity="0.5" d="M25.0167 25.2067C25.5014 24.7645 25.7928 24.1494 25.8281 23.4942C25.8634 22.8391 25.6397 22.1963 25.2053 21.7046C24.7709 21.2129 24.1606 20.9116 23.5061 20.8659C22.8515 20.8201 22.2053 21.0335 21.7067 21.46C18.6003 24.1942 16.1128 27.5596 14.4102 31.3315C12.7076 35.1034 11.8291 39.195 11.8333 43.3333C11.8333 43.9964 12.0967 44.6323 12.5656 45.1011C13.0344 45.5699 13.6703 45.8333 14.3333 45.8333C14.9964 45.8333 15.6323 45.5699 16.1011 45.1011C16.5699 44.6323 16.8333 43.9964 16.8333 43.3333C16.829 39.9036 17.5567 36.5124 18.968 33.3865C20.3792 30.2605 22.4414 27.4718 25.0167 25.2067ZM60.2933 21.46C59.7947 21.0335 59.1485 20.8201 58.4939 20.8659C57.8394 20.9116 57.2291 21.2129 56.7947 21.7046C56.3603 22.1963 56.1366 22.8391 56.1719 23.4942C56.2072 24.1494 56.4986 24.7645 56.9833 25.2067C59.5586 27.4718 61.6208 30.2605 63.032 33.3865C64.4433 36.5124 65.171 39.9036 65.1667 43.3333C65.1667 43.9964 65.4301 44.6323 65.8989 45.1011C66.3677 45.5699 67.0036 45.8333 67.6667 45.8333C68.3297 45.8333 68.9656 45.5699 69.4344 45.1011C69.9033 44.6323 70.1667 43.9964 70.1667 43.3333C70.1709 39.195 69.2924 35.1034 67.5898 31.3315C65.8872 27.5596 63.3997 24.1942 60.2933 21.46ZM34.9567 66.74C34.6354 66.6474 34.2989 66.6202 33.967 66.66C33.6351 66.6998 33.3145 66.8057 33.0243 66.9716C32.734 67.1374 32.48 67.3598 32.2772 67.6255C32.0743 67.8912 31.9269 68.195 31.8435 68.5187C31.7601 68.8424 31.7425 69.1796 31.7917 69.5102C31.8409 69.8409 31.9559 70.1583 32.1299 70.4437C32.304 70.7291 32.5335 70.9767 32.8049 71.1719C33.0763 71.3671 33.384 71.5059 33.71 71.58C38.4925 72.8071 43.5075 72.8071 48.29 71.58C48.616 71.5059 48.9237 71.3671 49.1951 71.1719C49.4665 70.9767 49.696 70.7291 49.8701 70.4437C50.0441 70.1583 50.1591 69.8409 50.2083 69.5102C50.2575 69.1796 50.2399 68.8424 50.1565 68.5187C50.0731 68.195 49.9257 67.8912 49.7228 67.6255C49.52 67.3598 49.266 67.1374 48.9757 66.9716C48.6855 66.8057 48.3649 66.6998 48.033 66.66C47.7011 66.6202 47.3646 66.6474 47.0433 66.74C45.0687 67.2454 43.0383 67.5008 41 67.5C38.9617 67.5008 36.9313 67.2454 34.9567 66.74Z" fill="var(--fill-0, white)"/>
<path id="Vector_2" d="M31 20C31 22.6522 32.0536 25.1957 33.9289 27.0711C35.8043 28.9464 38.3478 30 41 30C43.6522 30 46.1957 28.9464 48.0711 27.0711C49.9464 25.1957 51 22.6522 51 20C51 17.3478 49.9464 14.8043 48.0711 12.9289C46.1957 11.0536 43.6522 10 41 10C38.3478 10 35.8043 11.0536 33.9289 12.9289C32.0536 14.8043 31 17.3478 31 20ZM9.33333 60C9.33333 61.3132 9.59199 62.6136 10.0945 63.8268C10.5971 65.0401 11.3337 66.1425 12.2623 67.0711C13.1909 67.9997 14.2932 68.7362 15.5065 69.2388C16.7198 69.7413 18.0201 70 19.3333 70C20.6466 70 21.9469 69.7413 23.1602 69.2388C24.3734 68.7362 25.4758 67.9997 26.4044 67.0711C27.333 66.1425 28.0696 65.0401 28.5721 63.8268C29.0747 62.6136 29.3333 61.3132 29.3333 60C29.3333 57.3478 28.2798 54.8043 26.4044 52.9289C24.529 51.0536 21.9855 50 19.3333 50C16.6812 50 14.1376 51.0536 12.2623 52.9289C10.3869 54.8043 9.33333 57.3478 9.33333 60ZM62.6667 70C60.0145 70 57.471 68.9464 55.5956 67.0711C53.7202 65.1957 52.6667 62.6522 52.6667 60C52.6667 57.3478 53.7202 54.8043 55.5956 52.9289C57.471 51.0536 60.0145 50 62.6667 50C65.3188 50 67.8624 51.0536 69.7377 52.9289C71.6131 54.8043 72.6667 57.3478 72.6667 60C72.6667 62.6522 71.6131 65.1957 69.7377 67.0711C67.8624 68.9464 65.3188 70 62.6667 70Z" fill="var(--fill-0, white)"/>
</g>
<path id="Vector_3" d="M72.2618 91C77.6401 91 82 95.2533 82 100.5C82 105.747 77.6401 110 72.2618 110L9.73818 110C4.35993 110 2.26149e-07 105.747 0 100.5C-2.26149e-07 95.2533 4.35993 91 9.73818 91H72.2618Z" fill="var(--fill-0, white)"/>
</g>
</svg>
