<svg preserveAspectRatio="none" width="100%" height="100%" overflow="visible" style="display: block;" viewBox="0 0 82 110" fill="none" xmlns="http://www.w3.org/2000/svg">
<g id="Service Icon Container">
<g id="Service Icon">
<path id="Vector" d="M33.5 50C33.5 48.0109 34.2902 46.1032 35.6967 44.6967C37.1032 43.2902 39.0109 42.5 41 42.5C42.9891 42.5 44.8968 43.2902 46.3033 44.6967C47.7098 46.1032 48.5 48.0109 48.5 50C48.5 51.9891 47.7098 53.8968 46.3033 55.3033C44.8968 56.7098 42.9891 57.5 41 57.5C39.0109 57.5 37.1032 56.7098 35.6967 55.3033C34.2902 53.8968 33.5 51.9891 33.5 50Z" fill="var(--fill-0, #FF66FF)"/>
<path id="Vector_2" fill-rule="evenodd" clip-rule="evenodd" d="M11 30H71V43.3333C71 55.9033 71 62.19 67.0933 66.0933C66.0708 67.11 64.8468 67.9014 63.5 68.4167V73.3333C63.5 73.9964 63.2366 74.6323 62.7678 75.1011C62.2989 75.5699 61.663 75.8333 61 75.8333C60.337 75.8333 59.7011 75.5699 59.2322 75.1011C58.7634 74.6323 58.5 73.9964 58.5 73.3333V69.57C54.9333 70 50.3533 70 44.3333 70H37.6667C31.6467 70 27.0667 70 23.5 69.57V73.3333C23.5 73.9964 23.2366 74.6323 22.7678 75.1011C22.2989 75.5699 21.663 75.8333 21 75.8333C20.337 75.8333 19.7011 75.5699 19.2322 75.1011C18.7634 74.6323 18.5 73.9964 18.5 73.3333V68.4167C17.1532 67.9014 15.9292 67.11 14.9067 66.0933C11 62.19 11 55.9033 11 43.3333V30ZM41 37.5C37.6848 37.5 34.5054 38.817 32.1612 41.1612C29.817 43.5054 28.5 46.6848 28.5 50C28.5 53.3152 29.817 56.4946 32.1612 58.8388C34.5054 61.183 37.6848 62.5 41 62.5C44.3152 62.5 47.4946 61.183 49.8388 58.8388C52.183 56.4946 53.5 53.3152 53.5 50C53.5 46.6848 52.183 43.5054 49.8388 41.1612C47.4946 38.817 44.3152 37.5 41 37.5Z" fill="var(--fill-0, #FF66FF)"/>
<path id="Vector_3" opacity="0.5" d="M14.9067 10.5733C11.66 13.82 11.11 18.7133 11.02 27.5V30H71V27.5C70.9067 18.7133 70.3433 13.82 67.0967 10.5733C63.19 6.66667 56.9 6.66667 44.3333 6.66667H37.6667C25.1 6.66667 18.81 6.66667 14.9067 10.5733Z" fill="var(--fill-0, #FF66FF)"/>
<path id="Vector_4" d="M22.6667 15.8333C22.0036 15.8333 21.3677 16.0967 20.8989 16.5656C20.4301 17.0344 20.1667 17.6703 20.1667 18.3333C20.1667 18.9964 20.4301 19.6323 20.8989 20.1011C21.3677 20.5699 22.0036 20.8333 22.6667 20.8333H32.6667C33.3297 20.8333 33.9656 20.5699 34.4344 20.1011C34.9033 19.6323 35.1667 18.9964 35.1667 18.3333C35.1667 17.6703 34.9033 17.0344 34.4344 16.5656C33.9656 16.0967 33.3297 15.8333 32.6667 15.8333H22.6667ZM52.6667 18.3333C52.6667 19.2174 52.3155 20.0652 51.6904 20.6904C51.0652 21.3155 50.2174 21.6667 49.3333 21.6667C48.4493 21.6667 47.6014 21.3155 46.9763 20.6904C46.3512 20.0652 46 19.2174 46 18.3333C46 17.4493 46.3512 16.6014 46.9763 15.9763C47.6014 15.3512 48.4493 15 49.3333 15C50.2174 15 51.0652 15.3512 51.6904 15.9763C52.3155 16.6014 52.6667 17.4493 52.6667 18.3333ZM59.3333 21.6667C60.2174 21.6667 61.0652 21.3155 61.6904 20.6904C62.3155 20.0652 62.6667 19.2174 62.6667 18.3333C62.6667 17.4493 62.3155 16.6014 61.6904 15.9763C61.0652 15.3512 60.2174 15 59.3333 15C58.4493 15 57.6014 15.3512 56.9763 15.9763C56.3512 16.6014 56 17.4493 56 18.3333C56 19.2174 56.3512 20.0652 56.9763 20.6904C57.6014 21.3155 58.4493 21.6667 59.3333 21.6667Z" fill="var(--fill-0, #FF66FF)"/>
</g>
<path id="Vector_5" d="M72.2618 91C77.6401 91 82 95.2533 82 100.5C82 105.747 77.6401 110 72.2618 110L9.73818 110C4.35993 110 2.26149e-07 105.747 0 100.5C-2.26149e-07 95.2533 4.35993 91 9.73818 91H72.2618Z" fill="var(--fill-0, #FF66FF)"/>
</g>
</svg>
